<svg version="1.0" xmlns="http://www.w3.org/2000/svg" width="225.000000pt" height="225.000000pt" viewBox="0 0 225.000000 225.000000" preserveAspectRatio="xMidYMid meet"><g transform="translate(0.000000,225.000000) scale(0.100000,-0.100000)" fill="#AAA" stroke="none"><path d="M674 2085 c-27 -14 -58 -39 -70 -57 -11 -18 -119 -303 -239 -633 -235 -642 -240 -660 -202 -732 9 -18 32 -43 49 -56 33 -24 1204 -454 1263 -464 50 -8 107 13 147 54 31 33 52 80 148 343 114 314 119 333 83 373 -13 13 -33 17 -95 17 -95 0 -138 16 -196 73 -78 77 -91 187 -32 280 82 130 255 151 375 45 36 -32 56 -42 82 -42 46 0 66 24 98 118 29 85 29 131 0 187 -32 61 -18 56 -1002 410 -167 60 -316 109 -331 109 -15 0 -50 -11 -78 -25z m120 -50 c15 -8 34 -15 41 -15 7 0 48 -14 91 -32 44 -17 87 -31 97 -30 9 0 17 -3 17 -7 0 -5 21 -14 48 -20 26 -7 64 -21 85 -32 21 -11 36 -15 32 -9 -4 6 20 -1 52 -16 84 -38 111 -49 173 -68 30 -10 64 -21 75 -26 11 -5 45 -16 75 -26 30 -9 73 -25 95 -35 22 -9 58 -23 80 -29 22 -7 52 -19 66 -26 14 -7 29 -11 33 -7 3 3 6 1 6 -6 0 -8 7 -11 15 -7 8 3 15 1 15 -4 0 -6 8 -10 18 -10 30 0 103 -40 96 -52 -4 -7 -3 -8 4 -4 15 9 34 -29 34 -68 -1 -38 -4 -50 -25 -100 -9 -21 -17 -42 -17 -47 0 -15 -10 -10 -53 25 -56 44 -97 65 -156 76 -58 11 -166 -4 -188 -25 -8 -8 -20 -15 -28 -15 -19 0 -105 -84 -105 -102 0 -9 -6 -21 -14 -27 -7 -6 -19 -39 -25 -72 -11 -53 -10 -72 5 -131 14 -61 23 -77 69 -123 75 -74 128 -98 229 -99 96 -2 93 12 30 -158 -24 -66 -44 -125 -44 -133 0 -7 -3 -15 -7 -17 -5 -1 -16 -28 -26 -58 -47 -139 -101 -262 -121 -275 -36 -22 -81 -27 -122 -12 -77 27 -300 110 -364 135 -36 13 -121 44 -190 68 -230 80 -285 100 -310 114 -14 7 -27 13 -30 13 -7 -1 -13 2 -135 47 -60 23 -119 44 -130 47 -26 7 -65 43 -75 69 -8 21 4 102 20 139 5 11 16 38 23 60 8 22 42 114 76 205 35 91 70 188 78 215 8 28 18 55 23 60 8 12 24 66 22 78 -1 4 2 7 8 7 5 0 10 8 10 18 0 10 18 65 41 123 22 57 46 118 52 134 7 17 11 33 9 38 -1 4 3 7 9 7 6 0 9 7 6 15 -4 8 -2 17 3 20 6 4 10 13 10 21 0 8 7 31 16 52 10 20 18 43 20 50 7 35 43 78 74 89 46 16 50 15 84 -2z"/><path d="M1640 1262 c-49 -49 -60 -97 -34 -153 43 -97 154 -118 229 -44 91 92 28 235 -104 235 -48 0 -57 -4 -91 -38z m139 -46 c25 -20 32 -55 16 -86 -27 -52 -93 -52 -120 0 -35 68 44 133 104 86z"/><path d="M1937 1075 l-16 -34 46 -21 c25 -11 49 -20 52 -20 4 0 14 14 23 32 l15 32 -46 23 c-25 12 -49 23 -52 23 -3 0 -13 -16 -22 -35z"/></g></svg>